<svg width="0" height="0" style="display: none;">
  <defs>
    <!-- Current Cash Balance Icon -->
    <symbol id="icon-cash-balance" viewBox="0 0 24 24" fill="none" xmlns="http://www.w3.org/2000/svg">
      <g clip-path="url(#clip0_130_24943)">
        <path d="M14.001 12C14.001 13.103 13.104 14 12.001 14C10.898 14 10.001 13.103 10.001 12C10.001 10.897 10.898 10 12.001 10C13.104 10 14.001 10.897 14.001 12ZM24.002 15.548C24.002 17.611 22.702 19.492 20.768 20.229C19.427 20.741 18.16 21 17 21C15.366 21 13.902 20.601 12.487 20.215C11.139 19.847 9.86695 19.5 8.50095 19.5C6.92995 19.5 5.93895 19.601 5.08195 19.849C3.87595 20.196 2.60795 19.962 1.60195 19.205C0.584953 18.44 0.00195312 17.272 0.00195312 16V8.452C0.00195312 6.389 1.30095 4.508 3.23495 3.771C4.57595 3.259 5.84395 3 7.00295 3C8.63695 3 10.1 3.399 11.516 3.785C12.864 4.153 14.136 4.5 15.502 4.5C17.072 4.5 18.064 4.399 18.921 4.151C20.129 3.804 21.397 4.038 22.402 4.795C23.419 5.56 24.002 6.728 24.002 8V15.548ZM6.00195 14C6.00195 13.448 5.55395 13 5.00195 13C4.44995 13 4.00195 13.448 4.00195 14C4.00195 14.552 4.44995 15 5.00195 15C5.55395 15 6.00195 14.552 6.00195 14ZM6.00195 8C6.00195 7.448 5.55395 7 5.00195 7C4.44995 7 4.00195 7.448 4.00195 8C4.00195 8.552 4.44995 9 5.00195 9C5.55395 9 6.00195 8.552 6.00195 8ZM16.002 12C16.002 9.794 14.208 8 12.002 8C9.79595 8 8.00195 9.794 8.00195 12C8.00195 14.206 9.79595 16 12.002 16C14.208 16 16.002 14.206 16.002 12ZM20.002 16C20.002 15.448 19.554 15 19.002 15C18.45 15 18.002 15.448 18.002 16C18.002 16.552 18.45 17 19.002 17C19.554 17 20.002 16.552 20.002 16ZM20.002 10C20.002 9.448 19.554 9 19.002 9C18.45 9 18.002 9.448 18.002 10C18.002 10.552 18.45 11 19.002 11C19.554 11 20.002 10.552 20.002 10Z" fill="currentColor"/>
      </g>
      <defs>
        <clipPath id="clip0_130_24943">
          <rect width="24" height="24" fill="white"/>
        </clipPath>
      </defs>
    </symbol>

    <!-- Total Inflows Icon -->
    <symbol id="icon-total-inflows" viewBox="0 0 24 24" fill="none" xmlns="http://www.w3.org/2000/svg">
      <path d="M13.5 7C13.5 7.827 12.827 8.5 12 8.5C11.173 8.5 10.5 7.827 10.5 7C10.5 6.173 11.173 5.5 12 5.5C12.827 5.5 13.5 6.173 13.5 7ZM22 4V10C22 12.209 20.209 14 18 14H13V21.467L15.293 19.174C15.684 18.783 16.316 18.783 16.707 19.174C17.098 19.565 17.098 20.198 16.707 20.588L14.248 23.046C13.798 23.495 13.235 23.837 12.609 23.949C11.603 24.129 10.623 23.817 9.929 23.123L7.293 20.487C6.902 20.097 6.902 19.464 7.293 19.073C7.684 18.682 8.316 18.682 8.707 19.073L11 21.366V14H6C3.791 14 2 12.209 2 10V4C2 1.791 3.791 0 6 0H18C20.209 0 22 1.791 22 4ZM7 10.5C7 9.672 6.328 9 5.5 9C4.672 9 4 9.672 4 10.5C4 11.328 4.672 12 5.5 12C6.328 12 7 11.328 7 10.5ZM7 3.5C7 2.672 6.328 2 5.5 2C4.672 2 4 2.672 4 3.5C4 4.328 4.672 5 5.5 5C6.328 5 7 4.328 7 3.5ZM15.5 7C15.5 5.07 13.93 3.5 12 3.5C10.07 3.5 8.5 5.07 8.5 7C8.5 8.93 10.07 10.5 12 10.5C13.93 10.5 15.5 8.93 15.5 7ZM20 10.5C20 9.672 19.328 9 18.5 9C17.672 9 17 9.672 17 10.5C17 11.328 17.672 12 18.5 12C19.328 12 20 11.328 20 10.5ZM20 3.5C20 2.672 19.328 2 18.5 2C17.672 2 17 2.672 17 3.5C17 4.328 17.672 5 18.5 5C19.328 5 20 4.328 20 3.5Z" fill="currentColor"/>
    </symbol>

    <!-- Total Outflows Icon -->
    <symbol id="icon-total-outflows" viewBox="0 0 24 24" fill="none" xmlns="http://www.w3.org/2000/svg">
      <path d="M13.5 17C13.5 16.173 12.827 15.5 12 15.5C11.173 15.5 10.5 16.173 10.5 17C10.5 17.827 11.173 18.5 12 18.5C12.827 18.5 13.5 17.827 13.5 17ZM22 20V14C22 11.791 20.209 10 18 10H13V2.533L15.293 4.826C15.684 5.217 16.316 5.217 16.707 4.826C17.098 4.435 17.098 3.802 16.707 3.412L14.248 0.954C13.798 0.505001 13.235 0.163 12.609 0.0510006C11.603 -0.129 10.623 0.183001 9.929 0.877001L7.293 3.513C6.902 3.903 6.902 4.536 7.293 4.927C7.684 5.318 8.316 5.318 8.707 4.927L11 2.634V10H6C3.791 10 2 11.791 2 14V20C2 22.209 3.791 24 6 24H18C20.209 24 22 22.209 22 20ZM7 13.5C7 14.328 6.328 15 5.5 15C4.672 15 4 14.328 4 13.5C4 12.672 4.672 12 5.5 12C6.328 12 7 12.672 7 13.5ZM7 20.5C7 21.328 6.328 22 5.5 22C4.672 22 4 21.328 4 20.5C4 19.672 4.672 19 5.5 19C6.328 19 7 19.672 7 20.5ZM15.5 17C15.5 18.93 13.93 20.5 12 20.5C10.07 20.5 8.5 18.93 8.5 17C8.5 15.07 10.07 13.5 12 13.5C13.93 13.5 15.5 15.07 15.5 17ZM20 13.5C20 14.328 19.328 15 18.5 15C17.672 15 17 14.328 17 13.5C17 12.672 17.672 12 18.5 12C19.328 12 20 12.672 20 13.5ZM20 20.5C20 21.328 19.328 22 18.5 22C17.672 22 17 21.328 17 20.5C17 19.672 17.672 19 18.5 19C19.328 19 20 19.672 20 20.5Z" fill="currentColor"/>
    </symbol>

    <!-- Projected Month-End Cash Icon -->
    <symbol id="icon-projected-cash" viewBox="0 0 24 24" fill="none" xmlns="http://www.w3.org/2000/svg">
      <g clip-path="url(#clip0_130_24967)">
        <path d="M15.449 4.52298L14.035 3.10898L16.549 0.594977C17.34 -0.197023 18.629 -0.197023 19.42 0.594977L21.949 3.12398L20.535 4.53798L19 3.00298V7.99998H17V2.99798L15.449 4.52298ZM6 7.99998C9.314 7.99998 12 6.65698 12 4.99998C12 3.34298 9.314 1.99998 6 1.99998C2.686 1.99998 0 3.34298 0 4.99998C0 6.65698 2.686 7.99998 6 7.99998ZM6 16C9.421 16 12 14.495 12 12.5V10.5C12 12.471 9.5 14 6 14C2.5 14 0 12.471 0 10.5V12.5C0 14.495 2.579 16 6 16ZM6 12C9.421 12 12 10.495 12 8.49998V6.49998C12 8.47098 9.5 9.99998 6 9.99998C2.5 9.99998 0 8.47098 0 6.49998V8.49998C0 10.495 2.579 12 6 12ZM18 16C21.314 16 24 14.657 24 13C24 11.343 21.314 9.99998 18 9.99998C14.686 9.99998 12 11.343 12 13C12 14.657 14.686 16 18 16ZM18 22C14.5 22 12 20.471 12 18.5C12 20.471 9.5 22 6 22C2.5 22 0 20.471 0 18.5V20.5C0 22.495 2.579 24 6 24C9.421 24 12 22.495 12 20.5C12 22.495 14.579 24 18 24C21.421 24 24 22.495 24 20.5V18.5C24 20.471 21.5 22 18 22ZM18 18C14.5 18 12 16.471 12 14.5C12 16.471 9.5 18 6 18C2.5 18 0 16.471 0 14.5V16.5C0 18.495 2.579 20 6 20C9.421 20 12 18.495 12 16.5C12 18.495 14.579 20 18 20C21.421 20 24 18.495 24 16.5V14.5C24 16.471 21.5 18 18 18Z" fill="currentColor"/>
      </g>
      <defs>
        <clipPath id="clip0_130_24967">
          <rect width="24" height="24" fill="white"/>
        </clipPath>
      </defs>
    </symbol>
  </defs>
</svg>
